<?xml version="1.0" encoding="UTF-8"?>
<svg version="1.1" xmlns="http://www.w3.org/2000/svg" width="512" height="512">
<path d="M0 0 C1.45108658 0.00273422 1.45108658 0.00273422 2.93148804 0.00552368 C17.26440977 0.05095174 31.21023917 0.55983928 45.3125 3.3125 C46.65803955 3.55395752 46.65803955 3.55395752 48.03076172 3.80029297 C96.71843124 12.61028149 141.74255908 36.05356547 177.3125 70.3125 C178.3015332 71.26068604 178.3015332 71.26068604 179.31054688 72.22802734 C188.79880305 81.37247479 197.5387044 90.66984009 205.3125 101.3125 C206.17056152 102.46355017 207.02863451 103.61459177 207.88671875 104.765625 C213.92427396 112.95525981 219.30707302 121.45788276 224.3125 130.3125 C224.7146875 131.01971191 225.116875 131.72692383 225.53125 132.45556641 C238.54775099 155.57510937 247.281052 180.72419753 252.625 206.6875 C252.77235596 207.39801514 252.91971191 208.10853027 253.0715332 208.84057617 C256.05794017 224.48291051 256.68730954 240.11926093 256.625 256 C256.62226578 257.45108658 256.62226578 257.45108658 256.61947632 258.93148804 C256.57404826 273.26440977 256.06516072 287.21023917 253.3125 301.3125 C253.15152832 302.20952637 252.99055664 303.10655273 252.82470703 304.03076172 C244.01471851 352.71843124 220.57143453 397.74255908 186.3125 433.3125 C185.68037598 433.97185547 185.04825195 434.63121094 184.39697266 435.31054688 C175.25252521 444.79880305 165.95515991 453.5387044 155.3125 461.3125 C154.16144983 462.17056152 153.01040823 463.02863451 151.859375 463.88671875 C143.66974019 469.92427396 135.16711724 475.30707302 126.3125 480.3125 C125.60528809 480.7146875 124.89807617 481.116875 124.16943359 481.53125 C101.04989063 494.54775099 75.90080247 503.281052 49.9375 508.625 C49.22698486 508.77235596 48.51646973 508.91971191 47.78442383 509.0715332 C32.14208949 512.05794017 16.50573907 512.68730954 0.625 512.625 C-0.34239105 512.62317719 -1.3097821 512.62135437 -2.30648804 512.61947632 C-16.63940977 512.57404826 -30.58523917 512.06516072 -44.6875 509.3125 C-45.58452637 509.15152832 -46.48155273 508.99055664 -47.40576172 508.82470703 C-96.09343124 500.01471851 -141.11755908 476.57143453 -176.6875 442.3125 C-177.34685547 441.68037598 -178.00621094 441.04825195 -178.68554688 440.39697266 C-188.17380305 431.25252521 -196.9137044 421.95515991 -204.6875 411.3125 C-205.54556152 410.16144983 -206.40363451 409.01040823 -207.26171875 407.859375 C-213.29927396 399.66974019 -218.68207302 391.16711724 -223.6875 382.3125 C-224.0896875 381.60528809 -224.491875 380.89807617 -224.90625 380.16943359 C-237.92275099 357.04989063 -246.656052 331.90080247 -252 305.9375 C-252.22103394 304.87172729 -252.22103394 304.87172729 -252.4465332 303.78442383 C-255.43294017 288.14208949 -256.06230954 272.50573907 -256 256.625 C-255.99817719 255.65760895 -255.99635437 254.6902179 -255.99447632 253.69351196 C-255.94904826 239.36059023 -255.44016072 225.41476083 -252.6875 211.3125 C-252.44604248 209.96696045 -252.44604248 209.96696045 -252.19970703 208.59423828 C-243.38971851 159.90656876 -219.94643453 114.88244092 -185.6875 79.3125 C-185.05537598 78.65314453 -184.42325195 77.99378906 -183.77197266 77.31445312 C-174.62752521 67.82619695 -165.33015991 59.0862956 -154.6875 51.3125 C-153.53644983 50.45443848 -152.38540823 49.59636549 -151.234375 48.73828125 C-143.04474019 42.70072604 -134.54211724 37.31792698 -125.6875 32.3125 C-124.98028809 31.9103125 -124.27307617 31.508125 -123.54443359 31.09375 C-100.42489063 18.07724901 -75.27580247 9.343948 -49.3125 4 C-48.24672729 3.77896606 -48.24672729 3.77896606 -47.15942383 3.5534668 C-31.51708949 0.56705983 -15.88073907 -0.06230954 0 0 Z M-136.6875 60.3125 C-137.71101563 61.04082031 -138.73453125 61.76914062 -139.7890625 62.51953125 C-157.53203326 75.51075654 -174.43596048 90.70491808 -187.6875 108.3125 C-188.16219727 108.93253906 -188.63689453 109.55257812 -189.12597656 110.19140625 C-198.09743257 121.95981276 -205.7506823 134.24628518 -212.6875 147.3125 C-213.3060083 148.47338135 -213.3060083 148.47338135 -213.93701172 149.65771484 C-226.94470257 174.48765337 -234.64365143 202.49313982 -237.6875 230.3125 C-237.79835937 231.24320313 -237.90921875 232.17390625 -238.0234375 233.1328125 C-243.56840915 289.33184948 -228.4956753 347.34079915 -195.6875 393.3125 C-194.95917969 394.33601563 -194.23085937 395.35953125 -193.48046875 396.4140625 C-180.48924346 414.15703326 -165.29508192 431.06096048 -147.6875 444.3125 C-147.06746094 444.78719727 -146.44742188 445.26189453 -145.80859375 445.75097656 C-134.04018724 454.72243257 -121.75371482 462.3756823 -108.6875 469.3125 C-107.9135791 469.72483887 -107.1396582 470.13717773 -106.34228516 470.56201172 C-81.51234663 483.56970257 -53.50686018 491.26865143 -25.6875 494.3125 C-24.75679687 494.42335938 -23.82609375 494.53421875 -22.8671875 494.6484375 C33.33184948 500.19340915 91.34079915 485.1206753 137.3125 452.3125 C138.33601563 451.58417969 139.35953125 450.85585938 140.4140625 450.10546875 C158.15703326 437.11424346 175.06096048 421.92008192 188.3125 404.3125 C188.78719727 403.69246094 189.26189453 403.07242187 189.75097656 402.43359375 C198.72243257 390.66518724 206.3756823 378.37871482 213.3125 365.3125 C213.72483887 364.5385791 214.13717773 363.7646582 214.56201172 362.96728516 C227.56970257 338.13734663 235.26865143 310.13186018 238.3125 282.3125 C238.42335938 281.38179688 238.53421875 280.45109375 238.6484375 279.4921875 C244.19340915 223.29315052 229.1206753 165.28420085 196.3125 119.3125 C195.22001953 117.77722656 195.22001953 117.77722656 194.10546875 116.2109375 C181.11424346 98.46796674 165.92008192 81.56403952 148.3125 68.3125 C147.69246094 67.83780273 147.07242187 67.36310547 146.43359375 66.87402344 C134.66518724 57.90256743 122.37871482 50.2493177 109.3125 43.3125 C108.15161865 42.6939917 108.15161865 42.6939917 106.96728516 42.06298828 C82.13734663 29.05529743 54.13186018 21.35634857 26.3125 18.3125 C25.38179688 18.20164062 24.45109375 18.09078125 23.4921875 17.9765625 C-32.70684948 12.43159085 -90.71579915 27.5043247 -136.6875 60.3125 Z " fill="#000000" transform="translate(255.6875,-0.3125)"/>
<path d="M0 0 C3.15200539 2.29407886 5.79265475 5.03452828 8.50561523 7.82446289 C9.7360984 9.05363182 9.7360984 9.05363182 10.99143982 10.30763245 C13.69495906 13.01532632 16.37661511 15.7436387 19.05859375 18.47265625 C20.93059205 20.35584695 22.80373466 22.2378247 24.67848206 24.11827087 C29.10322319 28.56163537 33.51245175 33.02006683 37.91627127 37.48415703 C42.9322415 42.56727066 47.96532906 47.63328862 52.99990547 52.69796383 C63.35237966 63.11309604 73.6832645 73.54946711 84 84 C87.64556632 82.28901676 89.97958267 80.25695877 92.82861328 77.38256836 C93.52692764 76.68228264 93.52692764 76.68228264 94.23934937 75.96784973 C95.7709947 74.4297339 97.29553921 72.88476955 98.8203125 71.33984375 C99.88546549 70.26841807 100.95113679 69.19750743 102.01730347 68.12709045 C104.8188313 65.31227654 107.61473284 62.49194562 110.40905762 59.66998291 C114.88753129 55.14833977 119.37278453 50.63344588 123.86126328 46.12173653 C125.42912558 44.54363637 126.99353983 42.96217609 128.55764771 41.38035583 C129.51504208 40.41613541 130.47254548 39.45202322 131.43017578 38.48803711 C132.26638458 37.64357529 133.10259338 36.79911346 133.96414185 35.92906189 C136.42980603 33.59274057 137.42919743 33.06342251 140.8125 32.6875 C144.85211856 33.08354104 146.29729155 33.98841058 149 37 C150.08725607 40.73744273 150.55959562 42.87841741 148.79667664 46.41178894 C146.83102827 49.24341303 144.69724031 51.54264021 142.25317383 53.97387695 C141.78456436 54.44277847 141.3159549 54.91167999 140.83314514 55.39479065 C139.29580388 56.93074777 137.75151968 58.45951408 136.20703125 59.98828125 C135.13471032 61.0568688 134.0628325 62.12590118 132.99137878 63.19535828 C130.17966743 65.99945884 127.36200052 68.79749925 124.54302979 71.59429932 C121.66372097 74.4530946 118.79011442 77.31760917 115.91601562 80.18164062 C110.28289346 85.79335795 104.64346361 91.39868282 99 97 C100.36113013 100.04581486 101.89330096 102.13839026 104.25634766 104.48339844 C104.91688141 105.14378113 105.57741516 105.80416382 106.25796509 106.48455811 C106.96947723 107.18574768 107.68098938 107.88693726 108.4140625 108.609375 C109.50852188 109.69958954 109.50852188 109.69958954 110.62509155 110.81182861 C112.9537388 113.12929198 115.28924826 115.4396995 117.625 117.75 C119.20618653 119.32115444 120.78692125 120.89276371 122.3671875 122.46484375 C126.2395669 126.31518653 130.11760171 130.15976117 134 134 C137.06965037 132.63094802 139.16661171 131.07827042 141.5291748 128.69787598 C142.2104393 128.01647049 142.8917038 127.335065 143.59361267 126.63301086 C144.33035721 125.88593369 145.06710175 125.13885651 145.82617188 124.36914062 C146.61037003 123.58202194 147.39456818 122.79490326 148.20252991 121.9839325 C149.90441957 120.27443244 151.60399474 118.56262579 153.30152893 116.84880066 C155.9866479 114.13818213 158.6779417 111.43383661 161.37097168 108.7310791 C167.08624311 102.99293468 172.79371743 97.24707998 178.5 91.5 C185.11150979 84.84122083 191.72628555 78.18576082 198.34950256 71.53862 C201.00366942 68.87146554 203.65175128 66.19836749 206.29968262 63.52502441 C207.92410176 61.89334131 209.54880174 60.26193772 211.17382812 58.63085938 C211.91057266 57.8837822 212.6473172 57.13670502 213.40638733 56.36698914 C214.08765182 55.68558365 214.76891632 55.00417816 215.4708252 54.30212402 C216.0592646 53.70924339 216.64770401 53.11636276 217.25397491 52.50551605 C220.45847568 49.74242439 222.28220874 48.96222151 226.5625 49.1875 C230 50 230 50 231.875 51.125 C233.64983667 54.08306112 233.88200002 56.57800046 234 60 C231.62025928 65.2821787 227.18656262 69.0790529 223.13208008 73.0949707 C222.33184921 73.89549362 221.53161835 74.69601654 220.70713806 75.52079773 C218.06598299 78.1605616 215.41781852 80.79317428 212.76953125 83.42578125 C210.93492288 85.25665875 209.10075614 87.08797887 207.26701355 88.91972351 C202.93587664 93.24400936 198.60031623 97.56381335 194.26257008 101.881468 C189.32272538 106.79892973 184.38858318 111.72209645 179.4549042 116.64574301 C169.30958812 126.77017453 159.15715513 136.88744653 149 147 C150.3746884 150.091244 151.94082747 152.17950412 154.34681702 154.54695129 C155.03808182 155.23229446 155.72934662 155.91763763 156.44155884 156.62374878 C157.57855728 157.73582199 157.57855728 157.73582199 158.73852539 158.87036133 C159.53700394 159.65949417 160.33548248 160.44862701 161.15815735 161.26167297 C162.8923661 162.9748784 164.62872346 164.68591096 166.36696053 166.39502907 C169.11649987 169.10057335 171.85806751 171.81395089 174.59727478 174.529953 C182.38607349 182.25150903 190.1825589 189.96515397 198.00024414 197.6574707 C202.78166668 202.36239717 207.54711571 207.08301145 212.30407524 211.81268883 C214.12027752 213.61277215 215.94202058 215.40728274 217.76933479 217.19608498 C220.32375497 219.69759682 222.85906969 222.21708021 225.39086914 224.74145508 C226.15089233 225.47676453 226.91091553 226.21207397 227.69396973 226.96966553 C230.98470285 230.28600803 232.79689447 232.25699196 234.04978943 236.84037781 C233.99124487 240.55559783 233.36003982 242.15167609 231 245 C228.61090397 246.81241768 227.25444394 246.99421718 224.25 247.0625 C216.60035994 244.56165613 210.60469187 236.74724627 205.0234375 231.13696289 C204.27124435 230.38491577 203.51905121 229.63286865 202.74406433 228.85803223 C200.28532863 226.39860592 197.8301432 223.93566835 195.375 221.47265625 C193.66029396 219.756083 191.94536542 218.03973198 190.23022461 216.32359314 C185.73673216 211.82629938 181.24625211 207.3260096 176.75640869 202.82507324 C172.16625657 198.22465551 167.57323983 193.62709974 162.98046875 189.02929688 C153.98418527 180.02231819 144.99098623 171.01226637 136 162 C132.98342486 163.44585503 130.88006649 164.87470222 128.51660156 167.25634766 C127.85621887 167.91688141 127.19583618 168.57741516 126.51544189 169.25796509 C125.81425232 169.96947723 125.11306274 170.68098938 124.390625 171.4140625 C123.66381531 172.14370209 122.93700562 172.87334167 122.18817139 173.62509155 C119.87070802 175.9537388 117.5603005 178.28924826 115.25 180.625 C113.67884556 182.20618653 112.10723629 183.78692125 110.53515625 185.3671875 C106.68481347 189.2395669 102.84023883 193.11760171 99 197 C100.36905198 200.06965037 101.92172958 202.16661171 104.30212402 204.5291748 C104.98352951 205.2104393 105.664935 205.8917038 106.36698914 206.59361267 C107.11406631 207.33035721 107.86114349 208.06710175 108.63085938 208.82617188 C109.41797806 209.61037003 110.20509674 210.39456818 111.0160675 211.20252991 C112.72556756 212.90441957 114.43737421 214.60399474 116.15119934 216.30152893 C118.86181787 218.9866479 121.56616339 221.6779417 124.2689209 224.37097168 C130.00706532 230.08624311 135.75292002 235.79371743 141.5 241.5 C148.15877917 248.11150979 154.81423918 254.72628555 161.46138 261.34950256 C164.12853446 264.00366942 166.80163251 266.65175128 169.47497559 269.29968262 C171.10665869 270.92410176 172.73806228 272.54880174 174.36914062 274.17382812 C175.48975639 275.27894493 175.48975639 275.27894493 176.63301086 276.40638733 C177.31441635 277.08765182 177.99582184 277.76891632 178.69787598 278.4708252 C179.29075661 279.0592646 179.88363724 279.64770401 180.49448395 280.25397491 C183.25757561 283.45847568 184.03777849 285.28220874 183.8125 289.5625 C183 293 183 293 181.875 294.875 C178.91693888 296.64983667 176.42199954 296.88200002 173 297 C167.7178213 294.62025928 163.9209471 290.18656262 159.9050293 286.13208008 C159.10450638 285.33184921 158.30398346 284.53161835 157.47920227 283.70713806 C154.8394384 281.06598299 152.20682572 278.41781852 149.57421875 275.76953125 C147.74334125 273.93492288 145.91202113 272.10075614 144.08027649 270.26701355 C139.75599064 265.93587664 135.43618665 261.60031623 131.118532 257.26257008 C126.20107027 252.32272538 121.27790355 247.38858318 116.35425699 242.4549042 C106.22982547 232.30958812 96.11255347 222.15715513 86 212 C82.48059331 213.65666177 80.2607431 215.53263768 77.54199219 218.34204102 C76.66718201 219.2395961 75.79237183 220.13715118 74.89105225 221.06190491 C74.42797417 221.54133104 73.96489609 222.02075718 73.48778534 222.51471138 C72.03001597 224.02133023 70.56387634 225.51929825 69.0947876 227.01487732 C64.919575 231.26624763 60.75117534 235.52392212 56.60986328 239.80834961 C54.07227494 242.43238219 51.51768447 245.03879444 48.95145416 247.63480949 C47.98017785 248.62397275 47.01535602 249.61951903 46.05739594 250.62158394 C37.63041387 259.42854169 37.63041387 259.42854169 32.52832031 260.21069336 C29 260 29 260 26.0625 258.5 C23.3774312 255.24537115 23 253.19763489 23 249 C24.93764418 245.14387273 27.42545315 242.33043175 30.47143555 239.30151367 C31.82249641 237.9506794 31.82249641 237.9506794 33.20085144 236.57255554 C34.17936661 235.60425154 35.1579916 234.6360585 36.13671875 233.66796875 C37.1417791 232.66664219 38.14639609 231.66487044 39.15058899 230.66267395 C41.78474915 228.03612139 44.42486145 225.41563277 47.06628418 222.79638672 C49.76462674 220.11856465 52.45726141 217.43501648 55.15039062 214.75195312 C60.42804269 209.49570025 65.71199974 204.24584423 71 199 C69.63886987 195.95418514 68.10669904 193.86160974 65.74365234 191.51660156 C65.08311859 190.85621887 64.42258484 190.19583618 63.74203491 189.51544189 C63.03052277 188.81425232 62.31901062 188.11306274 61.5859375 187.390625 C60.85629791 186.66381531 60.12665833 185.93700562 59.37490845 185.18817139 C57.0462612 182.87070802 54.71075174 180.5603005 52.375 178.25 C50.79381347 176.67884556 49.21307875 175.10723629 47.6328125 173.53515625 C43.7604331 169.68481347 39.88239829 165.84023883 36 162 C32.93034963 163.36905198 30.83338829 164.92172958 28.4708252 167.30212402 C27.7895607 167.98352951 27.1082962 168.664935 26.40638733 169.36698914 C25.66964279 170.11406631 24.93289825 170.86114349 24.17382812 171.63085938 C23.38962997 172.41797806 22.60543182 173.20509674 21.79747009 174.0160675 C20.09558043 175.72556756 18.39600526 177.43737421 16.69847107 179.15119934 C14.0133521 181.86181787 11.3220583 184.56616339 8.62902832 187.2689209 C2.91375689 193.00706532 -2.79371743 198.75292002 -8.5 204.5 C-15.11150979 211.15877917 -21.72628555 217.81423918 -28.34950256 224.46138 C-31.00366942 227.12853446 -33.65175128 229.80163251 -36.29968262 232.47497559 C-37.92410176 234.10665869 -39.54880174 235.73806228 -41.17382812 237.36914062 C-41.91057266 238.1162178 -42.6473172 238.86329498 -43.40638733 239.63301086 C-44.08765182 240.31441635 -44.76891632 240.99582184 -45.4708252 241.69787598 C-46.35348431 242.58719692 -46.35348431 242.58719692 -47.25397491 243.49448395 C-50.45847568 246.25757561 -52.28220874 247.03777849 -56.5625 246.8125 C-60 246 -60 246 -61.875 244.875 C-63.64983667 241.91693888 -63.88200002 239.42199954 -64 236 C-61.62025928 230.7178213 -57.18656262 226.9209471 -53.13208008 222.9050293 C-51.93173378 221.70424492 -51.93173378 221.70424492 -50.70713806 220.47920227 C-48.06598299 217.8394384 -45.41781852 215.20682572 -42.76953125 212.57421875 C-40.93492288 210.74334125 -39.10075614 208.91202113 -37.26701355 207.08027649 C-32.93587664 202.75599064 -28.60031623 198.43618665 -24.26257008 194.118532 C-19.32272538 189.20107027 -14.38858318 184.27790355 -9.4549042 179.35425699 C0.69041188 169.22982547 10.84284487 159.11255347 21 149 C19.6253116 145.908756 18.05917253 143.82049588 15.65318298 141.45304871 C14.96191818 140.76770554 14.27065338 140.08236237 13.55844116 139.37625122 C12.8004422 138.63486908 12.04244324 137.89348694 11.26147461 137.12963867 C10.46299606 136.34050583 9.66451752 135.55137299 8.84184265 134.73832703 C7.1076339 133.0251216 5.37127654 131.31408904 3.63303947 129.60497093 C0.88350013 126.89942665 -1.85806751 124.18604911 -4.59727478 121.470047 C-12.38607349 113.74849097 -20.1825589 106.03484603 -28.00024414 98.3425293 C-32.78166668 93.63760283 -37.54711571 88.91698855 -42.30407524 84.18731117 C-44.12027752 82.38722785 -45.94202058 80.59271726 -47.76933479 78.80391502 C-50.32375497 76.30240318 -52.85906969 73.78291979 -55.39086914 71.25854492 C-56.53090393 70.15558075 -56.53090393 70.15558075 -57.69396973 69.03033447 C-60.98470285 65.71399197 -62.79689447 63.74300804 -64.04978943 59.15962219 C-63.99124487 55.44440217 -63.36003982 53.84832391 -61 51 C-58.61090397 49.18758232 -57.25444394 49.00578282 -54.25 48.9375 C-46.60035994 51.43834387 -40.60469187 59.25275373 -35.0234375 64.86303711 C-33.89514778 65.99110779 -33.89514778 65.99110779 -32.74406433 67.14196777 C-30.28532863 69.60139408 -27.8301432 72.06433165 -25.375 74.52734375 C-23.66029396 76.243917 -21.94536542 77.96026802 -20.23022461 79.67640686 C-15.73673216 84.17370062 -11.24625211 88.6739904 -6.75640869 93.17492676 C-2.16625657 97.77534449 2.42676017 102.37290026 7.01953125 106.97070312 C16.01581473 115.97768181 25.00901377 124.98773363 34 134 C37.01657514 132.55414497 39.11993351 131.12529778 41.48339844 128.74365234 C42.14378113 128.08311859 42.80416382 127.42258484 43.48455811 126.74203491 C44.18574768 126.03052277 44.88693726 125.31901062 45.609375 124.5859375 C46.69958954 123.49147812 46.69958954 123.49147812 47.81182861 122.37490845 C50.12929198 120.0462612 52.4396995 117.71075174 54.75 115.375 C56.32115444 113.79381347 57.89276371 112.21307875 59.46484375 110.6328125 C63.31518653 106.7604331 67.15976117 102.88239829 71 99 C69.63094802 95.93034963 68.07827042 93.83338829 65.69787598 91.4708252 C65.01647049 90.7895607 64.335065 90.1082962 63.63301086 89.40638733 C62.88593369 88.66964279 62.13885651 87.93289825 61.36914062 87.17382812 C60.58202194 86.38962997 59.79490326 85.60543182 58.9839325 84.79747009 C57.27443244 83.09558043 55.56262579 81.39600526 53.84880066 79.69847107 C51.13818213 77.0133521 48.43383661 74.3220583 45.7310791 71.62902832 C39.99293468 65.91375689 34.24707998 60.20628257 28.5 54.5 C21.84122083 47.88849021 15.18576082 41.27371445 8.53862 34.65049744 C5.87146554 31.99633058 3.19836749 29.34824872 0.52502441 26.70031738 C-1.10665869 25.07589824 -2.73806228 23.45119826 -4.36914062 21.82617188 C-5.1162178 21.08942734 -5.86329498 20.3526828 -6.63301086 19.59361267 C-7.31441635 18.91234818 -7.99582184 18.23108368 -8.69787598 17.5291748 C-9.29075661 16.9407354 -9.88363724 16.35229599 -10.49448395 15.74602509 C-13.25757561 12.54152432 -14.03777849 10.71779126 -13.8125 6.4375 C-12.73913043 1.89632107 -12.73913043 1.89632107 -10 0 C-6.00690138 -1.33103287 -4.09119205 -1.1191191 0 0 Z M82.39279175 112.36669922 C81.44014938 113.32600342 81.44014938 113.32600342 80.46826172 114.3046875 C79.74766571 115.02543457 79.0270697 115.74618164 78.28463745 116.48876953 C77.11893723 117.66995361 77.11893723 117.66995361 75.9296875 118.875 C75.13345978 119.67405762 74.33723206 120.47311523 73.51687622 121.29638672 C70.96487248 123.85962119 68.4198947 126.42970906 65.875 129 C64.15019658 130.73482947 62.42494201 132.46921053 60.69921875 134.203125 C56.46088952 138.46355296 52.22831458 142.72963398 48 147 C49.3761536 150.09179136 50.95158445 152.19638753 53.34814453 154.57519531 C54.02869904 155.25559875 54.70925354 155.9360022 55.41043091 156.63702393 C56.14381683 157.36008728 56.87720276 158.08315063 57.6328125 158.828125 C58.38464813 159.57713074 59.13648376 160.32613647 59.91110229 161.09783936 C62.31107901 163.4866302 64.71792009 165.86836897 67.125 168.25 C68.75436352 169.86933169 70.38327534 171.48911802 72.01171875 173.109375 C76.00258806 177.07820505 79.99911415 181.04126899 84 185 C87.09179136 183.6238464 89.19638753 182.04841555 91.57519531 179.65185547 C92.25559875 178.97130096 92.9360022 178.29074646 93.63702393 177.58956909 C94.36008728 176.85618317 95.08315063 176.12279724 95.828125 175.3671875 C96.57713074 174.61535187 97.32613647 173.86351624 98.09783936 173.08889771 C100.4866302 170.68892099 102.86836897 168.28207991 105.25 165.875 C106.86933169 164.24563648 108.48911802 162.61672466 110.109375 160.98828125 C114.07820505 156.99741194 118.04126899 153.00088585 122 149 C120.62702186 145.92306169 119.05785373 143.80542976 116.68359375 141.42480469 C115.67244507 140.40419952 115.67244507 140.40419952 114.64086914 139.36297607 C113.91375732 138.63991272 113.18664551 137.91684937 112.4375 137.171875 C111.69040771 136.42286926 110.94331543 135.67386353 110.17358398 134.90216064 C108.59572081 133.32293796 107.01533501 131.74623226 105.43261719 130.171875 C103.00222035 127.75221054 100.58269939 125.32203811 98.1640625 122.890625 C96.63084948 121.35873303 95.09701648 119.82746128 93.5625 118.296875 C92.83538818 117.56571472 92.10827637 116.83455444 91.35913086 116.08123779 C90.68503174 115.41344299 90.01093262 114.74564819 89.31640625 114.05761719 C88.72287354 113.46567566 88.12934082 112.87373413 87.51782227 112.26385498 C85.34422045 110.45394776 84.53430654 110.54564921 82.39279175 112.36669922 Z " fill="#000000" transform="translate(171,108)"/>
<path d="M0 0 C28.61759504 9.53919835 53.39893246 52.71707182 66.1484375 77.86816406 C71.14187729 87.88670495 75.35260999 98.11415382 79.0390625 108.6796875 C79.38066406 109.63875 79.72226562 110.5978125 80.07421875 111.5859375 C81.83175243 116.88306227 83.05277874 122.09855314 82.0390625 127.6796875 C80.00595686 130.80754233 78.63644835 131.48903244 75.1015625 132.6171875 C71.2126162 132.69655375 69.94874595 132.28308849 67.0390625 129.6796875 C64.18883305 125.13959869 62.78317683 119.90754567 61.18261719 114.83398438 C55.11508283 95.78377277 46.65566529 77.96427074 35.0390625 61.6796875 C33.91564453 60.08833984 33.91564453 60.08833984 32.76953125 58.46484375 C22.02972937 43.73873703 9.90175893 29.9870012 -4.515625 18.78515625 C-7.99593006 15.78853576 -10.69200439 13.29328616 -11.4609375 8.6796875 C-10.84559847 4.98765334 -9.54477364 3.33951882 -6.9609375 0.6796875 C-4.49459683 -0.55348284 -2.68874398 -0.45365639 0 0 Z " fill="#000000" transform="translate(387.9609375,79.3203125)"/>
<path d="M0 0 C3.40467837 3.08196004 6.2755474 6.47088959 9.125 10.0625 C14.16793405 16.28855169 19.51260517 22.16758933 25 28 C25.65484375 28.70898438 26.3096875 29.41796875 26.984375 30.1484375 C45.44782693 49.47982948 70.22982308 63.10417036 94.65966797 73.19506836 C95.69623535 73.63214111 96.73280273 74.06921387 97.80078125 74.51953125 C98.73059814 74.90214111 99.66041504 75.28475098 100.6184082 75.67895508 C103.27517673 77.15263775 104.48109988 78.38454619 106 81 C106.37904656 84.53776792 106.37306279 87.0549076 105.0625 90.375 C101.74624 92.98781091 98.146477 93.07467473 94 93 C90.79260337 92.22598018 87.92082583 90.95626178 84.9375 89.5625 C83.70749268 89.01432617 83.70749268 89.01432617 82.45263672 88.45507812 C79.95525323 87.32968715 77.476109 86.17136889 75 85 C73.90051025 84.48542236 73.90051025 84.48542236 72.77880859 83.96044922 C40.79294642 68.87389521 3.99680028 42.96253638 -13 11 C-13.4375 7.4375 -13.4375 7.4375 -13 4 C-9.00559801 -1.05957585 -6.20243228 -1.47176359 0 0 Z " fill="#000000" transform="translate(88,372)"/>
<path d="M0 0 C3.99457864 3.35596989 6.06755645 6.6430506 8.11328125 11.40234375 C8.37255905 12.00252823 8.63183685 12.60271271 8.89897156 13.22108459 C9.43992663 14.48170886 9.97492068 15.74490655 10.50415039 17.01049805 C11.31187656 18.93601381 12.14363415 20.8497987 12.97851562 22.76367188 C13.50407219 23.99677118 14.02820972 25.23047646 14.55078125 26.46484375 C15.02169189 27.574646 15.49260254 28.68444824 15.9777832 29.82788086 C17.04134446 33.12829916 17.33997399 35.5581856 17 39 C14.34695278 42.27209157 12.39927121 43.84452542 8.1875 44.3125 C4.0438799 43.90626274 2.94993791 42.94993791 0 40 C-1.80863417 36.86102067 -3.21563233 33.58388352 -4.625 30.25 C-5.0065625 29.38117188 -5.388125 28.51234375 -5.78125 27.6171875 C-13.44805002 10.00998468 -13.44805002 10.00998468 -11.1875 3.75 C-8.24708664 -0.58324074 -4.82450972 -0.58226841 0 0 Z " fill="#000000" transform="translate(59,318)"/>
<path d="M0 0 C0.79792969 0.33515625 1.59585937 0.6703125 2.41796875 1.015625 C7.03090331 3.04870467 10.17593104 4.7922292 12.875 9.25 C13.35010654 13.13003676 13.1770949 16.02706714 10.875 19.25 C8.24527433 21.3740092 6.75531075 21.24377722 3.34375 21.06640625 C-1.88489727 20.34412887 -6.29903853 18.18168296 -11 15.875 C-11.85335938 15.47539063 -12.70671875 15.07578125 -13.5859375 14.6640625 C-19.86131599 11.64552601 -19.86131599 11.64552601 -22.125 8.25 C-22.58862482 4.07737663 -22.5744094 1.96285629 -20.3125 -1.625 C-14.22977597 -7.53393191 -6.60158411 -2.92925103 0 0 Z " fill="#000000" transform="translate(349.125,54.75)"/>
<path d="M0 0 C4.26977512 0.96674154 5.80146353 2.17367533 8.3125 5.75 C9.0625 9.0625 9.0625 9.0625 8.3125 12.75 C6.29629928 15.74769432 3.86057563 18.20192437 1.3125 20.75 C0.72597656 21.41902344 0.13945312 22.08804687 -0.46484375 22.77734375 C-3.35789597 25.985286 -5.10931917 27.57056457 -9.3125 28.875 C-13.12561515 28.73377351 -14.76489717 28.1715852 -17.6875 25.75 C-19.49991768 23.36090397 -19.68171718 22.00444394 -19.75 19 C-18.18174002 14.20296948 -15.20614312 11.28220244 -11.6875 7.75 C-11.02878906 7.06808594 -10.37007812 6.38617188 -9.69140625 5.68359375 C-6.4476217 2.5536262 -4.4892319 0.91306412 0 0 Z " fill="#000000" transform="translate(176.6875,376.25)"/>
<path d="M0 0 C2.85695513 1.71417308 3.01592889 3.05628208 3.9375 6.3125 C4.0288383 11.70145949 1.80914772 14.05014079 -1.7578125 17.89453125 C-7.54081192 23.8348089 -7.54081192 23.8348089 -12.3125 24.375 C-16 24 -16 24 -18.9375 21.9375 C-21 19 -21 19 -21.75 15.6875 C-20.6772164 10.41298064 -17.74214434 7.70988448 -14 4 C-13.2575 3.195625 -12.515 2.39125 -11.75 1.5625 C-8.01038208 -1.77644457 -4.61650188 -0.9892504 0 0 Z " fill="#000000" transform="translate(351,108)"/>
</svg>
